<svg width="32" height="32" xmlns="http://www.w3.org/2000/svg">

 <title/>
 <g>
  <title>Layer 1</title>
  <g transform="rotate(-30, 16, 16)" id="svg_7">
   <path id="svg_1" fill="#707070" d="m15.93011,30.84009a6.08,6.08 0 0 1 -3.7,-1.24l-0.3,-0.25l-1.93,-16.36l2,-0.24l1.83,15.5a4.33,4.33 0 0 0 2.12,0.57a5,5 0 0 0 2.26,-0.6l1.69,-15.3l2,0.22l-1.8,16.23l-0.36,0.26a7,7 0 0 1 -3.81,1.21z" class="cls-2"/>
   <circle id="svg_2" fill="#ff4a64" r="6.53" cy="8.69009" cx="16.00011" class="cls-3"/>
   <path id="svg_3" fill="#707070" d="m16.00011,16.22009a7.53,7.53 0 1 1 7.53,-7.53a7.54,7.54 0 0 1 -7.53,7.53zm0,-13.06a5.53,5.53 0 1 0 5.53,5.53a5.54,5.54 0 0 0 -5.53,-5.53z" class="cls-2"/>
   <rect id="svg_4" fill="#707070" y="7.69009" x="9.47011" width="13.06" height="2" class="cls-2"/>
   <path id="svg_5" fill="#707070" d="m15.93011,24.01009a1,1 0 0 1 -1,-1l0,-5.17a1,1 0 0 1 2,0l0,5.13a1,1 0 0 1 -1,1.04z" class="cls-2"/>
  </g>
 </g>
</svg>